<svg width="20" height="20" viewBox="0 0 20 20" fill="none" xmlns="http://www.w3.org/2000/svg">
<g id="Ai">
<mask id="mask0_1500_2470" style="mask-type:alpha" maskUnits="userSpaceOnUse" x="0" y="0" width="20" height="20">
<rect id="Bounding box" width="20" height="20" fill="#D9D9D9"/>
</mask>
<g mask="url(#mask0_1500_2470)">
<g id="Group">
<g id="Group_2">
<path id="Vector" d="M11.1393 6.27078C9.19981 5.86419 7.68384 4.34822 7.27731 2.40866C7.22737 2.17056 7.01737 2 6.77403 2C6.53069 2 6.32069 2.17056 6.27078 2.40869C5.86422 4.34822 4.34825 5.86416 2.40872 6.27069C2.17059 6.32059 2 6.53063 2 6.77394C2 7.01725 2.17056 7.22728 2.40872 7.27719C4.34822 7.68378 5.86413 9.19972 6.27069 11.1393C6.32059 11.3774 6.53059 11.548 6.77394 11.548C7.01725 11.548 7.22728 11.3774 7.27719 11.1393C7.68378 9.19975 9.19978 7.68381 11.1393 7.27731C11.3774 7.22741 11.548 7.01741 11.548 6.77406C11.548 6.53072 11.3774 6.32069 11.1393 6.27078Z" fill="#FAD221"/>
</g>
</g>
<g id="Group_3">
<g id="Group_4">
<path id="Vector_2" d="M10.2894 14.7651C9.37561 14.5736 8.66136 13.8593 8.46977 12.9455C8.41986 12.7073 8.20986 12.5367 7.96652 12.5367C7.72321 12.5367 7.51318 12.7073 7.46327 12.9454C7.27168 13.8593 6.55739 14.5735 5.64358 14.7651C5.40546 14.815 5.23486 15.025 5.23486 15.2683C5.23486 15.5116 5.40543 15.7217 5.64358 15.7716C6.55736 15.9631 7.27164 16.6774 7.46321 17.5913C7.51311 17.8294 7.72311 18 7.96646 18C8.20977 18 8.4198 17.8295 8.46971 17.5913C8.6613 16.6774 9.37558 15.9632 10.2894 15.7716C10.5276 15.7217 10.6981 15.5117 10.6981 15.2684C10.6981 15.0251 10.5276 14.8151 10.2894 14.7651Z" fill="#FAD221"/>
</g>
</g>
<g id="Group_5">
<g id="Group_6">
<path id="Vector_3" d="M17.2356 10.0042C16.0004 9.7453 15.035 8.77986 14.7761 7.5447C14.7262 7.30658 14.5162 7.13599 14.2729 7.13599C14.0296 7.13599 13.8195 7.30652 13.7696 7.54467C13.5107 8.77986 12.5453 9.74527 11.3101 10.0042C11.072 10.0541 10.9014 10.2641 10.9014 10.5074C10.9014 10.7507 11.0719 10.9607 11.3101 11.0107C12.5452 11.2696 13.5106 12.235 13.7696 13.4702C13.8195 13.7083 14.0295 13.8789 14.2728 13.8789C14.5161 13.8789 14.7261 13.7084 14.7761 13.4702C15.035 12.235 16.0004 11.2696 17.2356 11.0107C17.4737 10.9608 17.6443 10.7508 17.6443 10.5075C17.6443 10.2642 17.4737 10.0541 17.2356 10.0042Z" fill="#FAD221"/>
</g>
</g>
</g>
</g>
</svg>
