<svg width="20" height="20" viewBox="0 0 20 20" fill="none" xmlns="http://www.w3.org/2000/svg">
<g clip-path="url(#clip0_1471_6197)">
<path d="M17.787 9.4879L11.4839 3.2121C11.2 2.9293 10.7394 2.9293 10.4554 3.2121C10.1714 3.4949 10.1714 3.95337 10.4554 4.23617L15.517 9.27597L2.72718 9.27665C2.32558 9.27665 2 9.60087 2 10.0008C2 10.4007 2.32567 10.7249 2.72732 10.7249L15.5168 10.7242L10.4555 15.7638C10.1714 16.0466 10.1714 16.5051 10.4555 16.7879C10.5974 16.9293 10.7836 17 10.9697 17C11.1558 17 11.342 16.9293 11.4839 16.7879L17.787 10.512C17.9233 10.3762 18 10.192 18 9.99996C18 9.80792 17.9234 9.6237 17.787 9.4879Z" fill="#717276"/>
</g>
<defs>
<clipPath id="clip0_1471_6197">
<rect width="20" height="20" fill="white"/>
</clipPath>
</defs>
</svg>
