<svg xmlns="http://www.w3.org/2000/svg" width="20" height="20" viewBox="0 0 20 20" fill="none">
  <mask id="mask0_1199_37750" style="mask-type:alpha" maskUnits="userSpaceOnUse" x="0" y="0" width="20" height="20">
    <rect width="20" height="20" fill="#D9D9D9"/>
  </mask>
  <g mask="url(#mask0_1199_37750)">
    <path d="M9.99583 12.6875C9.89583 12.6875 9.80208 12.6701 9.71458 12.6354C9.62708 12.6007 9.54861 12.5486 9.47917 12.4792L6.52083 9.52083C6.36806 9.36931 6.29514 9.19257 6.30208 8.99062C6.30903 8.78854 6.38556 8.61111 6.53167 8.45833C6.69111 8.30556 6.87153 8.22917 7.07292 8.22917C7.27431 8.22917 7.45139 8.30556 7.60417 8.45833L9.25 10.125V3.75C9.25 3.5375 9.32146 3.35937 9.46438 3.21562C9.60729 3.07187 9.78438 3 9.99563 3C10.2069 3 10.3854 3.07187 10.5312 3.21562C10.6771 3.35937 10.75 3.5375 10.75 3.75V10.125L12.4167 8.45833C12.5649 8.30556 12.7408 8.23264 12.9444 8.23958C13.1481 8.24653 13.3297 8.32639 13.4892 8.47917C13.6353 8.63194 13.7083 8.80903 13.7083 9.01042C13.7083 9.21181 13.6319 9.38889 13.4792 9.54167L10.5208 12.4792C10.4458 12.5486 10.3646 12.6007 10.2771 12.6354C10.1896 12.6701 10.0958 12.6875 9.99583 12.6875ZM5.49417 16C5.08139 16 4.72917 15.8531 4.4375 15.5594C4.14583 15.2656 4 14.9125 4 14.5V13.75C4 13.5375 4.07146 13.3594 4.21437 13.2156C4.35729 13.0719 4.53437 13 4.74562 13C4.95687 13 5.13542 13.0719 5.28125 13.2156C5.42708 13.3594 5.5 13.5375 5.5 13.75V14.5H14.5V13.75C14.5 13.5375 14.5715 13.3594 14.7144 13.2156C14.8573 13.0719 15.0344 13 15.2456 13C15.4569 13 15.6354 13.0719 15.7812 13.2156C15.9271 13.3594 16 13.5375 16 13.75V14.5C16 14.9125 15.8531 15.2656 15.5592 15.5594C15.2653 15.8531 14.9119 16 14.4992 16H5.49417Z" fill="#CECECE"/>
  </g>
</svg>