<svg width="21" height="20" viewBox="0 0 21 20" fill="#CECECE" xmlns="http://www.w3.org/2000/svg">
<g id="iconNext">
<path id="Vector" d="M2.51285 9.516L8.81588 3.21302C9.09985 2.92899 9.56036 2.92899 9.84439 3.21302C10.1284 3.49704 10.1284 3.9575 9.84439 4.24153L4.78281 9.30315L17.5726 9.30383C17.9742 9.30383 18.2998 9.62946 18.2998 10.0311C18.2998 10.4328 17.9741 10.7584 17.5725 10.7583L4.78296 10.7576L9.84434 15.8191C10.1284 16.1031 10.1284 16.5636 9.84434 16.8476C9.70237 16.9896 9.51624 17.0606 9.33011 17.0606C9.14397 17.0606 8.95784 16.9896 8.81588 16.8476L2.51285 10.5445C2.37646 10.4081 2.29981 10.2232 2.29981 10.0303C2.29981 9.83741 2.37641 9.65239 2.51285 9.516Z" fill="#CECECE"/>
</g>
</svg>
