<svg width="20" height="20" viewBox="0 0 20 20" fill="none" xmlns="http://www.w3.org/2000/svg">
<path d="M15.5 13.5C15.5 13.8452 15.2202 14.125 14.875 14.125C14.0459 14.0921 14.0462 12.9078 14.875 12.875C15.2202 12.875 15.5 13.1548 15.5 13.5ZM18 13.517C17.9987 14.8387 17.223 15.6823 16.4728 16.4981C16.124 16.8774 15.7634 17.2696 15.4837 17.71C15.369 17.8906 15.17 18 14.9561 18H14.7939C14.58 18 14.381 17.8906 14.2663 17.7101C13.9867 17.2697 13.626 16.8774 13.2772 16.4981C12.527 15.6823 11.7513 14.8387 11.75 13.5183C11.9268 9.34747 17.8241 9.35059 18 13.517ZM16.75 13.5171C16.6429 11.0061 13.1054 11.0081 13 13.5184C13.0008 14.3508 13.5288 14.925 14.1973 15.652C14.4236 15.8981 14.6543 16.1491 14.875 16.4223C15.0957 16.1491 15.3264 15.8981 15.5527 15.652C16.2212 14.925 16.7492 14.3508 16.75 13.5171ZM18 4.5V9.40625C17.967 10.2355 16.7827 10.2349 16.75 9.40625V5.90184L12.7552 9.90997C12.638 10.0275 12.479 10.0936 12.313 10.0938H12.3125C12.1468 10.0938 11.9877 10.0279 11.8705 9.91069L9.41337 7.45353L6.80638 10.0605L10.5662 13.8073C10.8107 14.0509 10.8114 14.4467 10.5677 14.6912C10.324 14.9357 9.92831 14.9363 9.68381 14.6927L5.9225 10.9444L3.25 13.6169V15.5C3.25 16.1892 3.81075 16.75 4.5 16.75H11.6875C12.5167 16.783 12.5161 17.9673 11.6875 18H4.5C3.1215 18 2 16.8785 2 15.5V4.5C2 3.1215 3.1215 2 4.5 2H15.5C16.8785 2 18 3.1215 18 4.5ZM8.52953 6.56966L5.20988 3.25H4.5C3.81075 3.25 3.25 3.81075 3.25 4.5V11.8492L8.52953 6.56966ZM16.7073 4.17556C16.564 3.64309 16.0771 3.25 15.5 3.25H6.97762L12.3118 8.58413L16.7073 4.17556ZM16.7157 4.20881C16.7152 4.20656 16.7147 4.20431 16.7141 4.20206C16.7096 4.20922 16.7097 4.21191 16.7157 4.20881Z" fill="#CECECE"/>
</svg>
