<svg width="21" height="20" viewBox="0 0 21 20" fill="none" xmlns="http://www.w3.org/2000/svg">
<g clip-path="url(#clip0_1175_4466)">
<path d="M16.7529 12.625C16.4509 12.625 16.2061 12.8698 16.2061 13.1719V15.1329L5.16695 4.09375H7.12793C7.42997 4.09375 7.6748 3.84891 7.6748 3.54688C7.6748 3.24484 7.42997 3 7.12793 3H3.84668C3.54855 3 3.2998 3.24273 3.2998 3.54688V6.82812C3.2998 7.13016 3.54464 7.375 3.84668 7.375C4.14872 7.375 4.39355 7.13016 4.39355 6.82812V4.86714L15.4327 15.9062H13.4717C13.1696 15.9062 12.9248 16.1511 12.9248 16.4531C12.9248 16.7552 13.1696 17 13.4717 17H16.7529C17.0564 17 17.2998 16.7517 17.2998 16.4531V13.1719C17.2998 12.8698 17.055 12.625 16.7529 12.625Z" fill="#717276"/>
<path d="M16.7529 3H13.4717C13.1697 3 12.9248 3.24484 12.9248 3.54688C12.9248 3.84891 13.1697 4.09375 13.4717 4.09375H15.4327L11.4597 8.06666C11.2462 8.28024 11.2462 8.6265 11.4597 8.84005C11.6733 9.05361 12.0196 9.05363 12.2331 8.84005L16.2061 4.86714V6.82812C16.2061 7.13016 16.4509 7.375 16.7529 7.375C17.055 7.375 17.2998 7.13016 17.2998 6.82812V3.54688C17.2998 3.24415 17.0528 3 16.7529 3Z" fill="#717276"/>
<path d="M8.36646 11.1599L4.39355 15.1328V13.1719C4.39355 12.8698 4.14872 12.625 3.84668 12.625C3.54464 12.625 3.2998 12.8698 3.2998 13.1719V16.4531C3.2998 16.7538 3.54483 17 3.84668 17H7.12793C7.42997 17 7.6748 16.7551 7.6748 16.4531C7.6748 16.1511 7.42997 15.9062 7.12793 15.9062H5.16695L9.13988 11.9333C9.35346 11.7197 9.35346 11.3735 9.13988 11.1599C8.9263 10.9464 8.58005 10.9464 8.36646 11.1599Z" fill="#717276"/>
</g>
<defs>
<clipPath id="clip0_1175_4466">
<rect width="20" height="20" fill="white" transform="translate(0.299805)"/>
</clipPath>
</defs>
</svg>
