<svg xmlns="http://www.w3.org/2000/svg" width="18" height="18" viewBox="0 0 18 18" fill="none">
  <path d="M9 6.74997H9.0075M8.25 8.99997H9V12H9.75M14.9062 4.70244C15.4312 5.00094 15.7537 5.55969 15.75 6.16344V11.6264C15.75 12.2332 15.4177 12.7927 14.8815 13.0874L9.819 16.2899C9.56802 16.4277 9.28632 16.5 9 16.5C8.71368 16.5 8.43198 16.4277 8.181 16.2899L3.1185 13.0874C2.85612 12.9441 2.63709 12.7328 2.48431 12.4758C2.33152 12.2188 2.2506 11.9254 2.25 11.6264V6.16269C2.25 5.55594 2.58225 4.99719 3.1185 4.70244L8.181 1.71744C8.4394 1.57496 8.72967 1.50024 9.02475 1.50024C9.31983 1.50024 9.6101 1.57496 9.8685 1.71744L14.931 4.70244H14.9062Z" stroke="#FFDE55" stroke-linecap="round" stroke-linejoin="round"/>
</svg>