<svg width="14" height="16" viewBox="0 0 14 16" fill="none" xmlns="http://www.w3.org/2000/svg">
<g id="Group">
<path id="Vector" d="M6.92819 0L0 4V12L6.92819 16L13.8564 12V4L6.92819 0ZM12.9273 10.9272L10.6246 9.59769V5.86591L7.39272 4V1.341L12.9273 4.53641V10.9272ZM6.92819 4.80459L9.23097 6.13409L6.92819 7.46359L4.62541 6.13409L6.92819 4.80459ZM4.16087 6.93869L6.46366 8.26819V10.9272L4.16087 9.59769V6.93869ZM7.39272 8.26819L9.6955 6.93869V9.59769L7.39272 10.9272V8.26819ZM6.46366 1.341V4L3.23181 5.86591V9.59772L0.929062 10.9272V4.53641L6.46366 1.341ZM1.39359 11.7318L3.69634 10.4023L6.92819 12.2682L10.16 10.4023L12.4628 11.7318L6.92819 14.9272L1.39359 11.7318Z" fill="#CECECE"/>
</g>
</svg>
