<svg width="16" height="16" viewBox="0 0 16 16" fill="none" xmlns="http://www.w3.org/2000/svg">
<g id="Group">
<path id="Vector" d="M14.9935 10.1508C13.8085 8.97951 11.9638 8.84798 10.6305 9.75605L9.64653 8.78354C9.81584 8.41914 9.91031 8.01382 9.91031 7.58704C9.91031 6.96144 9.70728 6.38194 9.36312 5.90981L10.1398 5.14218C10.6129 5.45393 11.1608 5.60981 11.7087 5.60981C12.4331 5.60981 13.1575 5.33727 13.709 4.79227V4.79224C14.2457 4.26183 14.5413 3.55604 14.5413 2.80495C14.5413 2.05382 14.2457 1.34803 13.709 0.817622C12.606 -0.272541 10.8113 -0.272541 9.70834 0.817622C9.17165 1.34803 8.87605 2.05382 8.87605 2.80495C8.87605 3.31867 9.01433 3.8112 9.27349 4.24092L8.42417 5.08033C8.00636 4.84852 7.52498 4.71627 7.01304 4.71627C6.57969 4.71627 6.16829 4.81102 5.79878 4.98071L4.48956 3.68676C4.69593 3.33048 4.80584 2.92532 4.80584 2.50329C4.80584 1.86563 4.555 1.2665 4.09946 0.816309C3.16399 -0.108196 1.64192 -0.108259 0.706473 0.816309C0.250845 1.26653 0 1.86566 0 2.50332C0 3.14098 0.250845 3.74011 0.706379 4.19033C1.17413 4.65258 1.78851 4.88371 2.40289 4.88371C2.81777 4.88371 3.23264 4.7783 3.60236 4.56749L4.79303 5.74424C4.37043 6.24322 4.11565 6.88619 4.11565 7.58704C4.11565 8.11576 4.26065 8.61154 4.51334 9.03742L3.74074 9.80099C2.94755 9.3882 1.94129 9.51111 1.27494 10.1697L1.27498 10.1697C0.875755 10.5642 0.655848 11.0894 0.655848 11.6484C0.655848 12.2073 0.875724 12.7325 1.27498 13.127C1.6846 13.5319 2.22254 13.7343 2.76067 13.7343C3.29868 13.7342 3.83683 13.5318 4.2464 13.127C4.64562 12.7325 4.8655 12.2073 4.8655 11.6484C4.8655 11.3062 4.78309 10.9767 4.62759 10.682L5.36869 9.94955C5.83613 10.2699 6.40282 10.4578 7.01298 10.4578C7.72295 10.4578 8.37411 10.2035 8.87849 9.78192L9.74281 10.6361C9.3539 11.1964 9.14468 11.8592 9.14468 12.5539C9.14468 13.4621 9.50215 14.3156 10.1512 14.9571C10.8014 15.5996 11.6714 15.9493 12.5701 15.9493C12.7991 15.9493 13.03 15.9266 13.2596 15.8802C13.5979 15.8119 13.8168 15.4823 13.7485 15.1439C13.6802 14.8056 13.3504 14.5867 13.0122 14.655C12.2904 14.8007 11.5493 14.5814 11.0299 14.0681C10.6202 13.6632 10.3947 13.1255 10.3947 12.5539C10.3947 11.9824 10.6202 11.4447 11.0299 11.0398C11.8804 10.1993 13.2643 10.1993 14.1148 11.0398C14.616 11.5352 14.8408 12.2427 14.7161 12.9323C14.6547 13.272 14.8803 13.5971 15.22 13.6585C15.5596 13.72 15.8848 13.4944 15.9462 13.1547C16.1443 12.059 15.7882 10.9361 14.9935 10.1508ZM10.587 1.70669C10.8962 1.40106 11.3024 1.24825 11.7087 1.24825C12.1149 1.24825 12.5211 1.40106 12.8304 1.70669C13.1276 2.00044 13.2913 2.39051 13.2913 2.80498C13.2913 3.21942 13.1276 3.60945 12.8304 3.9032C12.2118 4.51446 11.2055 4.51449 10.587 3.90323C10.2897 3.60948 10.1261 3.21942 10.1261 2.80498C10.126 2.39051 10.2897 2.00044 10.587 1.70669ZM1.58507 3.30126C1.36901 3.0877 1.25001 2.80432 1.25001 2.50332C1.25001 2.20232 1.36901 1.91894 1.58507 1.70541C1.81057 1.48253 2.1067 1.37116 2.40292 1.37116C2.69908 1.37116 2.9953 1.48259 3.22074 1.70538C3.4368 1.91894 3.5558 2.20232 3.5558 2.50332C3.5558 2.80432 3.4368 3.0877 3.22074 3.30126C2.7698 3.74689 2.03604 3.74689 1.58507 3.30126ZM3.36774 12.2379C3.03299 12.5688 2.48833 12.5688 2.15364 12.2379C1.99389 12.08 1.90585 11.8707 1.90585 11.6484C1.90585 11.4261 1.99386 11.2167 2.15364 11.0588C2.15364 11.0587 2.15364 11.0587 2.15367 11.0587C2.32098 10.8933 2.54086 10.8106 2.76067 10.8106C2.98052 10.8106 3.20036 10.8933 3.36774 11.0587C3.52749 11.2167 3.61549 11.4261 3.61549 11.6484C3.61546 11.8707 3.52749 12.0801 3.36774 12.2379ZM7.01298 9.2078C6.10466 9.2078 5.36566 8.4807 5.36566 7.58704C5.36566 6.69337 6.10463 5.96631 7.01298 5.96631C7.92133 5.96631 8.6603 6.69337 8.6603 7.58704C8.6603 8.4807 7.9213 9.2078 7.01298 9.2078Z" fill="#CECECE"/>
</g>
</svg>
