<svg width="20" height="20" viewBox="0 0 20 20" fill="none" xmlns="http://www.w3.org/2000/svg">
<g id="Filter Icon" clip-path="url(#clip0_722_10668)">
<mask id="mask0_722_10668" style="mask-type:alpha" maskUnits="userSpaceOnUse" x="0" y="0" width="20" height="20">
<rect id="Bounding box" width="20" height="20" fill="#D9D9D9"/>
</mask>
<g mask="url(#mask0_722_10668)">
<path id="Vector" d="M16.125 14.375H15.5V10C15.5 7.46313 13.8118 5.31335 11.4998 4.61462C11.6198 4.37256 11.6875 4.10034 11.6875 3.8125C11.6875 2.81311 10.8744 2 9.875 2C8.87561 2 8.0625 2.81311 8.0625 3.8125C8.0625 4.10034 8.13025 4.37256 8.25024 4.61462C5.93823 5.31335 4.25 7.46313 4.25 10V14.375H3.625C3.27979 14.375 3 14.6548 3 15C3 15.3452 3.27979 15.625 3.625 15.625H6.81567C7.104 16.9802 8.31006 18 9.75 18H10C11.4399 18 12.646 16.9802 12.9343 15.625H16.125C16.4702 15.625 16.75 15.3452 16.75 15C16.75 14.6548 16.4702 14.375 16.125 14.375ZM9.3125 3.8125C9.3125 3.50232 9.56482 3.25 9.875 3.25C10.1852 3.25 10.4375 3.50232 10.4375 3.8125C10.4375 4.12268 10.1852 4.375 9.875 4.375C9.56482 4.375 9.3125 4.12268 9.3125 3.8125ZM10 16.75H9.75C9.00513 16.75 8.36743 16.2822 8.11536 15.625H11.6346C11.3826 16.2822 10.7449 16.75 10 16.75ZM5.5 14.375V10C5.5 7.58765 7.46265 5.625 9.875 5.625C12.2874 5.625 14.25 7.58765 14.25 10V14.375C13.4008 14.375 5.83032 14.375 5.5 14.375Z" fill="#CECECE"/>
</g>
</g>
<defs>
<clipPath id="clip0_722_10668">
<rect width="20" height="20" fill="white"/>
</clipPath>
</defs>
</svg>
