<svg width="16" height="12" viewBox="0 0 16 12" fill="none" xmlns="http://www.w3.org/2000/svg">
<g id="Group">
<path id="Vector" d="M5.375 6.75C5.72019 6.75 6 6.47019 6 6.125C6 5.77981 5.72019 5.5 5.375 5.5H3.125C2.77981 5.5 2.5 5.77981 2.5 6.125C2.5 6.47019 2.77981 6.75 3.125 6.75H5.375Z" fill="#CECECE"/>
<path id="Vector_2" d="M10.375 0.5H0.625C0.279813 0.5 0 0.779813 0 1.125C0 1.47019 0.279813 1.75 0.625 1.75H6.86425C6.42656 2.10625 6.0415 2.52791 5.72484 3H1.875C1.52981 3 1.25 3.27981 1.25 3.625C1.25 3.97019 1.52981 4.25 1.875 4.25H6.07081C6.29341 4.25 6.49919 4.13162 6.61109 3.93922C7.40831 2.56841 8.81541 1.75 10.375 1.75C12.7874 1.75 14.75 3.71263 14.75 6.125C14.75 8.53737 12.7874 10.5 10.375 10.5C8.81531 10.5 7.40822 9.68163 6.61109 8.31081C6.49919 8.11841 6.29341 8 6.07081 8H1.875C1.52981 8 1.25 8.27981 1.25 8.625C1.25 8.97019 1.52981 9.25 1.875 9.25H5.72484C6.04147 9.72209 6.4265 10.1438 6.86416 10.5H0.625C0.279813 10.5 0 10.7798 0 11.125C0 11.4702 0.279813 11.75 0.625 11.75H10.375C13.4766 11.75 16 9.22663 16 6.125C16 3.02338 13.4766 0.5 10.375 0.5Z" fill="#CECECE"/>
<path id="Vector_3" d="M9.56697 7.81694L10.817 6.56694C10.9342 6.44975 11 6.29075 11 6.125V3.625C11 3.27981 10.7202 3 10.375 3C10.0298 3 9.75 3.27981 9.75 3.625V5.86613L8.68303 6.93306C8.43897 7.17716 8.43897 7.57288 8.68303 7.81694C8.92713 8.06103 9.32288 8.06103 9.56697 7.81694Z" fill="#CECECE"/>
</g>
</svg>
