<svg width="14" height="16" viewBox="0 0 14 16" fill="none" xmlns="http://www.w3.org/2000/svg">
<g id="Report">
<g id="Group">
<path id="Vector" d="M10.625 16H3.125C1.40187 16 0 14.5981 0 12.875V3.125C0 1.40188 1.40187 0 3.125 0H9.58947C10.4242 0 11.2089 0.325063 11.7992 0.915313L12.8347 1.95084C13.425 2.54109 13.75 3.32584 13.75 4.16056V4.375C13.75 4.72019 13.4702 5 13.125 5H10.625C9.59116 5 8.75003 4.15887 8.75003 3.125V1.25H3.125C2.09112 1.25 1.25 2.09113 1.25 3.125V12.875C1.25 13.9089 2.09112 14.75 3.125 14.75H10.625C11.6589 14.75 12.5 13.9089 12.5 12.875V6.875C12.5 6.52981 12.7798 6.25 13.125 6.25C13.4702 6.25 13.75 6.52981 13.75 6.875V12.875C13.75 14.5981 12.3481 16 10.625 16ZM10 1.29481V3.125C10 3.46962 10.2804 3.75 10.625 3.75H12.4552C12.3787 3.40594 12.2061 3.09 11.9508 2.83472L10.9153 1.79919C10.66 1.54391 10.3441 1.37128 10 1.29481Z" fill="#CECECE"/>
</g>
<path id="Vector_2" d="M10.625 11H10V6.875C10 6.52981 9.72019 6.25 9.375 6.25C9.02981 6.25 8.75 6.52981 8.75 6.875V11H7.5V8.125C7.5 7.77981 7.22019 7.5 6.875 7.5C6.52981 7.5 6.25 7.77981 6.25 8.125V11H5V9.375C5 9.02981 4.72019 8.75 4.375 8.75C4.02981 8.75 3.75 9.02981 3.75 9.375V11H3.125C2.77981 11 2.5 11.2798 2.5 11.625C2.5 11.9702 2.77981 12.25 3.125 12.25H10.625C10.9702 12.25 11.25 11.9702 11.25 11.625C11.25 11.2798 10.9702 11 10.625 11Z" fill="#CECECE"/>
<g id="Group_2">
<path id="Vector_3" d="M5.625 5H3.125C2.77981 5 2.5 4.72019 2.5 4.375C2.5 4.02981 2.77981 3.75 3.125 3.75H5.625C5.97019 3.75 6.25 4.02981 6.25 4.375C6.25 4.72019 5.97019 5 5.625 5Z" fill="#CECECE"/>
</g>
</g>
</svg>
