<svg xmlns="http://www.w3.org/2000/svg" width="16" height="16" viewBox="0 0 16 16" fill="none">
  <path d="M5.33097 1.82809C3.35538 3.80371 2.98126 6.78342 4.20817 9.13958L0.548428 12.7993C-0.182809 13.5305 -0.182809 14.7203 0.548428 15.4516C1.2797 16.1828 2.46948 16.1829 3.20072 15.4516L5.42962 13.2227C5.67374 12.9786 5.67377 12.5828 5.42962 12.3387C5.18544 12.0945 4.78966 12.0945 4.54551 12.3387L2.31663 14.5675C2.07292 14.8112 1.67629 14.8112 1.43258 14.5675C1.1888 14.3238 1.1888 13.9272 1.43258 13.6834L4.911 10.205C5.0419 10.3649 5.18181 10.5199 5.331 10.6691C7.76849 13.1065 11.7345 13.1065 14.172 10.6691C16.6094 8.23161 16.6094 4.26557 14.172 1.82812C11.7345 -0.609368 7.76846 -0.609368 5.33097 1.82809ZM13.2878 9.78495C11.3379 11.7349 8.16502 11.7349 6.21512 9.78495C4.26516 7.83499 4.26516 4.66217 6.21512 2.7122C8.16505 0.762271 11.3379 0.76224 13.2878 2.7122C15.2378 4.66214 15.2378 7.83496 13.2878 9.78495Z" fill="#CECECE"/>
  <path d="M7.09915 3.59629C6.85499 3.84044 6.85496 4.23626 7.09911 4.48038C7.3433 4.72453 7.73911 4.72453 7.9832 4.48038C8.95821 3.50542 10.5446 3.50542 11.5196 4.48038C11.7638 4.72453 12.1596 4.72453 12.4037 4.48038C12.6478 4.23622 12.6478 3.84041 12.4037 3.59629C10.9412 2.13382 8.56159 2.13382 7.09915 3.59629Z" fill="#CECECE"/>
</svg>