<svg width="24" height="24" viewBox="0 0 24 24" fill="none" xmlns="http://www.w3.org/2000/svg">
<path d="M19.0513 13.2717L18.3857 12.7238C17.9297 12.3484 17.9305 11.6508 18.3857 11.2762L19.0513 10.7283C19.5249 10.3383 19.6461 9.66963 19.3393 9.13822L18.025 6.86178C17.7182 6.33041 17.0784 6.10103 16.504 6.31622L15.6966 6.61869C15.1436 6.82581 14.5399 6.47647 14.443 5.89491L14.3012 5.04447C14.2004 4.43928 13.6818 4 13.0683 4H10.4397C9.82609 4 9.30753 4.43928 9.20669 5.0445L9.06494 5.89491C8.96784 6.4775 8.36328 6.82547 7.81131 6.61872L7.00397 6.31622C6.4295 6.10103 5.78975 6.33044 5.48291 6.86178L4.16862 9.13819C3.86184 9.66953 3.98297 10.3383 4.45669 10.7283L5.12228 11.2762C5.57828 11.6516 5.57737 12.3491 5.12228 12.7238L4.45666 13.2717C3.98297 13.6617 3.86181 14.3304 4.16859 14.8617L5.48291 17.1382C5.78972 17.6695 6.42934 17.8989 7.00397 17.6838L7.81128 17.3813C8.36437 17.1741 8.968 17.5237 9.06491 18.1051L9.20666 18.9554C9.30753 19.5607 9.82609 20 10.4397 20H13.0682C13.6818 20 14.2004 19.5607 14.3012 18.9555L14.4429 18.1051C14.54 17.5227 15.1445 17.1745 15.6966 17.3813L16.504 17.6838C17.0786 17.899 17.7182 17.6696 18.025 17.1382L19.3394 14.8617C19.6461 14.3304 19.5249 13.6617 19.0513 13.2717ZM16.9425 16.5132L16.1352 16.2107C14.8446 15.7273 13.4361 16.5429 13.21 17.8996L13.0683 18.75H10.4397L10.2979 17.8996C10.0714 16.5403 8.66087 15.7282 7.37278 16.2107L6.56544 16.5132L5.25116 14.2368L5.91675 13.6888C6.98078 12.8129 6.97856 11.1853 5.91675 10.3112L5.25116 9.76322L6.56547 7.48678L7.37278 7.78925C8.66341 8.27269 10.0718 7.45706 10.2979 6.10041L10.4397 5.25H13.0682L13.21 6.10041C13.4365 7.45984 14.8471 8.27169 16.1351 7.78925L16.9425 7.48678L18.2571 9.76291C18.2571 9.76291 18.257 9.763 18.2567 9.76319L17.5912 10.3111C16.5272 11.187 16.5293 12.8147 17.5911 13.6888L18.2567 14.2367L16.9425 16.5132ZM11.754 8.91666C10.0538 8.91666 8.67062 10.2998 8.67062 12C8.67062 13.7002 10.0538 15.0833 11.754 15.0833C13.4541 15.0833 14.8373 13.7002 14.8373 12C14.8373 10.2998 13.4541 8.91666 11.754 8.91666ZM11.754 13.8333C10.7431 13.8333 9.92062 13.0109 9.92062 12C9.92062 10.9891 10.7431 10.1667 11.754 10.1667C12.7649 10.1667 13.5873 10.9891 13.5873 12C13.5873 13.0109 12.7649 13.8333 11.754 13.8333Z" fill="#B7B8BA"/>
</svg>
