<svg width="16" height="16" viewBox="0 0 16 16" fill="none" xmlns="http://www.w3.org/2000/svg">
<g id="Group">
<path id="Vector" d="M15.0625 9.97097V6.02903C15.6082 5.83556 16 5.31425 16 4.70312C16 3.92772 15.3692 3.29688 14.5938 3.29688C14.3769 3.29688 14.1714 3.34622 13.9878 3.43425L12.5658 2.01219C12.6538 1.82862 12.7031 1.62309 12.7031 1.40625C12.7031 0.630844 12.0723 0 11.2969 0C10.5215 0 9.89062 0.630844 9.89062 1.40625C9.89062 1.62309 9.93997 1.82862 10.028 2.01222L8.60597 3.43428C8.42237 3.34625 8.21684 3.29691 8 3.29691C7.78316 3.29691 7.57762 3.34625 7.39403 3.43428L5.972 2.01222C6.06003 1.82862 6.10938 1.62309 6.10938 1.40625C6.10938 0.630844 5.47853 0 4.70312 0C3.92772 0 3.29688 0.630844 3.29688 1.40625C3.29688 1.62309 3.34622 1.82862 3.43425 2.01222L2.01222 3.43428C1.82862 3.34622 1.62309 3.29688 1.40625 3.29688C0.630844 3.29688 0 3.92772 0 4.70312C0 5.31425 0.391844 5.83556 0.9375 6.02903V9.97097C0.391844 10.1644 0 10.6858 0 11.2969C0 12.0723 0.630844 12.7031 1.40625 12.7031C1.62309 12.7031 1.82862 12.6538 2.01222 12.5658L3.43425 13.9878C3.34622 14.1714 3.29688 14.3769 3.29688 14.5938C3.29688 15.3692 3.92772 16 4.70312 16C5.47853 16 6.10938 15.3692 6.10938 14.5938C6.10938 14.3769 6.06003 14.1714 5.972 13.9878L7.39403 12.5658C7.57762 12.6538 7.78316 12.7031 8 12.7031C8.21684 12.7031 8.42237 12.6538 8.60597 12.5658L10.028 13.9878C9.93997 14.1714 9.89062 14.3769 9.89062 14.5938C9.89062 15.3692 10.5215 16 11.2969 16C12.0723 16 12.7031 15.3692 12.7031 14.5938C12.7031 14.3769 12.6538 14.1714 12.5658 13.9878L13.9878 12.5658C14.1714 12.6538 14.3769 12.7031 14.5938 12.7031C15.3692 12.7031 16 12.0723 16 11.2969C16 10.6858 15.6082 10.1644 15.0625 9.97097ZM11.2969 13.1875C11.08 13.1875 10.8745 13.2368 10.6909 13.3249L9.26888 11.9028C9.35691 11.7192 9.40625 11.5137 9.40625 11.2969C9.40625 11.08 9.35691 10.8745 9.26888 10.6909L11.2969 8.66291L13.3249 10.6909C13.2368 10.8745 13.1875 11.08 13.1875 11.2969C13.1875 11.5137 13.2368 11.7192 13.3249 11.9028L11.9028 13.3249C11.7192 13.2368 11.5137 13.1875 11.2969 13.1875ZM4.70312 13.1875C4.48628 13.1875 4.28075 13.2368 4.09716 13.3249L2.67512 11.9028C2.76316 11.7192 2.8125 11.5137 2.8125 11.2969C2.8125 11.08 2.76316 10.8745 2.67512 10.6909L4.70312 8.66291L6.73112 10.6909C6.64309 10.8745 6.59375 11.08 6.59375 11.2969C6.59375 11.5137 6.64309 11.7192 6.73112 11.9028L5.30909 13.3249C5.1255 13.2368 4.91997 13.1875 4.70312 13.1875ZM4.70312 2.8125C4.91997 2.8125 5.1255 2.76316 5.30909 2.67512L6.73112 4.09719C6.64309 4.28075 6.59375 4.48628 6.59375 4.70312C6.59375 4.91997 6.64309 5.1255 6.73112 5.30909L4.70312 7.33709L2.67512 5.30909C2.76316 5.1255 2.8125 4.91997 2.8125 4.70312C2.8125 4.48628 2.76316 4.28075 2.67512 4.09716L4.09716 2.67509C4.28075 2.76316 4.48628 2.8125 4.70312 2.8125ZM2.01222 5.972L4.04022 8L2.01222 10.028C1.96772 10.0067 1.92194 9.98759 1.875 9.97094V6.02903C1.92194 6.01241 1.96772 5.99334 2.01222 5.972ZM7.39403 10.028L5.36603 8L7.39403 5.972C7.57762 6.06003 7.78316 6.10938 8 6.10938C8.21684 6.10938 8.42237 6.06003 8.60597 5.972L10.634 8L8.60597 10.028C8.42237 9.93997 8.21684 9.89062 8 9.89062C7.78316 9.89062 7.57762 9.93997 7.39403 10.028ZM11.2969 2.8125C11.5137 2.8125 11.7192 2.76316 11.9028 2.67512L13.3249 4.09719C13.2368 4.28075 13.1875 4.48628 13.1875 4.70312C13.1875 4.91997 13.2368 5.1255 13.3249 5.30909L11.2969 7.33709L9.26888 5.30909C9.35691 5.1255 9.40625 4.91997 9.40625 4.70312C9.40625 4.48628 9.35691 4.28075 9.26888 4.09716L10.6909 2.67509C10.8745 2.76316 11.08 2.8125 11.2969 2.8125ZM13.9878 10.028L11.9598 8L13.9878 5.972C14.0323 5.99334 14.0781 6.01241 14.125 6.02906V9.971C14.0781 9.98759 14.0323 10.0067 13.9878 10.028ZM15.0625 4.70312C15.0625 4.96159 14.8522 5.17188 14.5938 5.17188C14.3353 5.17188 14.125 4.96159 14.125 4.70312C14.125 4.44466 14.3353 4.23438 14.5938 4.23438C14.8522 4.23438 15.0625 4.44466 15.0625 4.70312ZM11.2969 0.9375C11.5553 0.9375 11.7656 1.14778 11.7656 1.40625C11.7656 1.66472 11.5553 1.875 11.2969 1.875C11.0384 1.875 10.8281 1.66472 10.8281 1.40625C10.8281 1.14778 11.0384 0.9375 11.2969 0.9375ZM8.46875 4.70312C8.46875 4.96159 8.25847 5.17188 8 5.17188C7.74153 5.17188 7.53125 4.96159 7.53125 4.70312C7.53125 4.44466 7.74153 4.23438 8 4.23438C8.25847 4.23438 8.46875 4.44466 8.46875 4.70312ZM4.70312 0.9375C4.96159 0.9375 5.17188 1.14778 5.17188 1.40625C5.17188 1.66472 4.96159 1.875 4.70312 1.875C4.44466 1.875 4.23438 1.66472 4.23438 1.40625C4.23438 1.14778 4.44466 0.9375 4.70312 0.9375ZM1.40625 4.23438C1.66472 4.23438 1.875 4.44466 1.875 4.70312C1.875 4.96159 1.66472 5.17188 1.40625 5.17188C1.14778 5.17188 0.9375 4.96159 0.9375 4.70312C0.9375 4.44466 1.14778 4.23438 1.40625 4.23438ZM0.9375 11.2969C0.9375 11.0384 1.14778 10.8281 1.40625 10.8281C1.66472 10.8281 1.875 11.0384 1.875 11.2969C1.875 11.5553 1.66472 11.7656 1.40625 11.7656C1.14778 11.7656 0.9375 11.5553 0.9375 11.2969ZM4.70312 15.0625C4.44466 15.0625 4.23438 14.8522 4.23438 14.5938C4.23438 14.3353 4.44466 14.125 4.70312 14.125C4.96159 14.125 5.17188 14.3353 5.17188 14.5938C5.17188 14.8522 4.96159 15.0625 4.70312 15.0625ZM7.53125 11.2969C7.53125 11.0384 7.74153 10.8281 8 10.8281C8.25847 10.8281 8.46875 11.0384 8.46875 11.2969C8.46875 11.5553 8.25847 11.7656 8 11.7656C7.74153 11.7656 7.53125 11.5553 7.53125 11.2969ZM11.2969 15.0625C11.0384 15.0625 10.8281 14.8522 10.8281 14.5938C10.8281 14.3353 11.0384 14.125 11.2969 14.125C11.5553 14.125 11.7656 14.3353 11.7656 14.5938C11.7656 14.8522 11.5553 15.0625 11.2969 15.0625ZM14.5938 11.7656C14.3353 11.7656 14.125 11.5553 14.125 11.2969C14.125 11.0384 14.3353 10.8281 14.5938 10.8281C14.8522 10.8281 15.0625 11.0384 15.0625 11.2969C15.0625 11.5553 14.8522 11.7656 14.5938 11.7656Z" fill="#CECECE"/>
</g>
</svg>
