<svg xmlns="http://www.w3.org/2000/svg" width="20" height="20" viewBox="0 0 20 20" fill="none">
  <path d="M7.2 17C6.815 17 6.48542 16.8629 6.21125 16.5888C5.93708 16.3146 5.8 15.985 5.8 15.6V7.2C5.8 6.815 5.93708 6.48542 6.21125 6.21125C6.48542 5.93708 6.815 5.8 7.2 5.8H15.6C15.985 5.8 16.3146 5.93708 16.5888 6.21125C16.8629 6.48542 17 6.815 17 7.2V15.6C17 15.985 16.8629 16.3146 16.5888 16.5888C16.3146 16.8629 15.985 17 15.6 17H7.2ZM7.2 15.6H10.7V13.5H7.2V15.6ZM12.1 15.6H15.6V13.5H12.1V15.6ZM3.7 14.2C3.3134 14.2 3 13.8866 3 13.5V4.4C3 4.015 3.13708 3.68542 3.41125 3.41125C3.68542 3.13708 4.015 3 4.4 3H13.5C13.8866 3 14.2 3.3134 14.2 3.7C14.2 4.0866 13.8866 4.4 13.5 4.4H4.4V13.5C4.4 13.8866 4.0866 14.2 3.7 14.2ZM7.2 12.1H10.7V10H7.2V12.1ZM12.1 12.1H15.6V10H12.1V12.1ZM7.2 8.6H15.6V7.2H7.2V8.6Z" fill="#CECECE"/>
</svg>