<svg width="20" height="20" viewBox="0 0 20 20" fill="none" xmlns="http://www.w3.org/2000/svg">
<g id="iconSmartTicket">
<path id="confirmation_number" d="M3.70655 16C3.37467 16 3.0906 15.8817 2.85436 15.645C2.61812 15.4081 2.5 15.1235 2.5 14.7912V12.3185C2.5 12.1838 2.53829 12.0682 2.61488 11.9719C2.69134 11.8754 2.79022 11.8101 2.91152 11.7758C3.27223 11.6476 3.55845 11.4165 3.77018 11.0828C3.98178 10.749 4.08758 10.3915 4.08758 10.0104C4.08758 9.63132 3.98248 9.27151 3.77227 8.93098C3.56207 8.59058 3.27623 8.35523 2.91476 8.22492C2.79067 8.19094 2.69052 8.12554 2.61431 8.0287C2.5381 7.93198 2.5 7.81707 2.5 7.68397V5.20903C2.5 4.87652 2.61812 4.59192 2.85436 4.35523C3.0906 4.11841 3.37467 4 3.70655 4H16.2935C16.6252 4 16.9093 4.11841 17.1456 4.35523C17.3819 4.59192 17.5 4.87652 17.5 5.20903V7.68168C17.5 7.81631 17.4619 7.93198 17.3857 8.0287C17.3095 8.12554 17.21 8.19094 17.0871 8.22492C16.7244 8.35446 16.4379 8.58988 16.2277 8.93117C16.0175 9.27246 15.9124 9.6331 15.9124 10.0131C15.9124 10.3931 16.0178 10.7495 16.2287 11.0824C16.4394 11.4151 16.726 11.6459 17.0885 11.7747C17.2104 11.8089 17.3095 11.8745 17.3857 11.9713C17.4619 12.068 17.5 12.1829 17.5 12.316V14.7912C17.5 15.1235 17.3819 15.4081 17.1456 15.645C16.9093 15.8817 16.6252 16 16.2935 16H3.70655ZM3.70655 14.7912H16.2935V12.7678C15.8172 12.4624 15.4335 12.0688 15.1423 11.5869C14.8512 11.105 14.7057 10.5781 14.7057 10.0064C14.7057 9.42994 14.8507 8.89987 15.1408 8.41618C15.4308 7.93236 15.815 7.53775 16.2935 7.23235V5.20903H3.70655V7.23235C4.19338 7.53775 4.57969 7.93173 4.86546 8.41427C5.15124 8.89694 5.29413 9.42708 5.29413 10.0047C5.29413 10.5806 5.15073 11.1088 4.86394 11.5892C4.57715 12.0695 4.19135 12.4624 3.70655 12.7678V14.7912ZM11.3768 13.7095C11.5428 13.7095 11.6861 13.6495 11.8068 13.5295C11.9274 13.4095 11.9878 13.2663 11.9878 13.1C11.9878 12.9337 11.9279 12.79 11.8081 12.6692C11.6883 12.5483 11.5454 12.4878 11.3794 12.4878C11.2134 12.4878 11.0701 12.5478 10.9494 12.6678C10.8288 12.7878 10.7685 12.931 10.7685 13.0973C10.7685 13.2636 10.8283 13.4072 10.9481 13.5281C11.0679 13.649 11.2108 13.7095 11.3768 13.7095ZM11.3768 10.6044C11.5428 10.6044 11.6861 10.5444 11.8068 10.4244C11.9274 10.3044 11.9878 10.1613 11.9878 9.99494C11.9878 9.82862 11.9279 9.68502 11.8081 9.56413C11.6883 9.44324 11.5454 9.38279 11.3794 9.38279C11.2134 9.38279 11.0701 9.44279 10.9494 9.56279C10.8288 9.68279 10.7685 9.82595 10.7685 9.99227C10.7685 10.1586 10.8283 10.3022 10.9481 10.4231C11.0679 10.544 11.2108 10.6044 11.3768 10.6044ZM11.3768 7.49958C11.5428 7.49958 11.6861 7.43958 11.8068 7.31958C11.9274 7.19958 11.9878 7.05642 11.9878 6.8901C11.9878 6.72378 11.9279 6.58018 11.8081 6.45929C11.6883 6.3384 11.5454 6.27795 11.3794 6.27795C11.2134 6.27795 11.0701 6.33795 10.9494 6.45795C10.8288 6.57795 10.7685 6.72111 10.7685 6.88743C10.7685 7.05375 10.8283 7.19735 10.9481 7.31824C11.0679 7.43913 11.2108 7.49958 11.3768 7.49958Z" fill="#CECECE"/>
</g>
</svg>
