<svg width="16" height="16" viewBox="0 0 16 16" fill="none" xmlns="http://www.w3.org/2000/svg">
<g id="Group">
<g id="Group_2">
<g id="Group_3">
<path id="Vector" d="M7.75494 10.7256C7.29747 10.7256 6.92709 11.1068 6.92709 11.5643C6.92709 12.0109 7.28656 12.4031 7.75494 12.4031C8.22331 12.4031 8.59369 12.011 8.59369 11.5643C8.59369 11.1068 8.21247 10.7256 7.75494 10.7256Z" fill="#CECECE"/>
<path id="Vector_2" d="M7.89656 4.375C6.42603 4.375 5.75069 5.24641 5.75069 5.83463C5.75069 6.25947 6.11012 6.45553 6.40425 6.45553C6.99244 6.45553 6.75281 5.61678 7.86387 5.61678C8.40853 5.61678 8.84425 5.85644 8.84425 6.3575C8.84425 6.94575 8.23425 7.28341 7.87478 7.58841C7.55891 7.86072 7.14497 8.30734 7.14497 9.24412C7.14497 9.81053 7.29744 9.97394 7.74406 9.97394C8.27781 9.97394 8.38672 9.73431 8.38672 9.52734C8.38672 8.96091 8.39766 8.63412 8.99675 8.16575C9.29084 7.937 10.2167 7.19628 10.2167 6.17234C10.2167 5.14841 9.29084 4.375 7.89656 4.375Z" fill="#CECECE"/>
<path id="Vector_3" d="M8 0C3.57863 0 0 3.57803 0 8V15.375C0 15.7202 0.279813 16 0.625 16H8C12.4213 16 16 12.422 16 8C16 3.57863 12.422 0 8 0ZM8 14.75H1.25V8C1.25 4.26947 4.26897 1.25 8 1.25C11.7305 1.25 14.75 4.26897 14.75 8C14.75 11.7305 11.731 14.75 8 14.75Z" fill="#CECECE"/>
</g>
</g>
</g>
</svg>
