<svg width="16" height="16" viewBox="0 0 16 16" fill="none" xmlns="http://www.w3.org/2000/svg">
<g id="Group 5">
<path id="Ellipse 4" d="M14 2C14 3.10457 11.4256 4 8.25 4C5.07436 4 2.5 3.10457 2.5 2C2.5 0.89543 5.07436 0 8.25 0C11.4256 0 14 0.89543 14 2Z" fill="#CECECE"/>
<path id="Ellipse 5 (Stroke)" fill-rule="evenodd" clip-rule="evenodd" d="M4.71569 14.447C5.59567 14.7822 6.8451 15 8.25 15C9.6549 15 10.9043 14.7822 11.7843 14.447C12.226 14.2787 12.549 14.0905 12.7528 13.907C12.9567 13.7233 13 13.5849 13 13.5H14C14 13.9674 13.7495 14.3551 13.422 14.65C13.0945 14.945 12.6486 15.1878 12.1403 15.3815C11.1202 15.7701 9.7446 16 8.25 16C6.7554 16 5.37983 15.7701 4.35969 15.3815C3.85136 15.1878 3.40551 14.945 3.07795 14.65C2.75051 14.3551 2.5 13.9674 2.5 13.5H3.5C3.5 13.5849 3.5433 13.7233 3.74719 13.907C3.95096 14.0905 4.27396 14.2787 4.71569 14.447Z" fill="#CECECE"/>
<path id="Vector 612 (Stroke)" fill-rule="evenodd" clip-rule="evenodd" d="M3 2C3.27614 2 3.5 2.22386 3.5 2.5V13.5H2.5V2.5C2.5 2.22386 2.72386 2 3 2Z" fill="#CECECE"/>
<path id="Vector 615 (Stroke)" fill-rule="evenodd" clip-rule="evenodd" d="M1 2.5C1.27614 2.5 1.5 2.72386 1.5 3L1.5 9C1.5 9.27614 1.27614 9.5 1 9.5C0.723858 9.5 0.500001 9.27614 0.500001 9L0.5 3C0.5 2.72386 0.723858 2.5 1 2.5Z" fill="#CECECE"/>
<path id="Vector 617 (Stroke)" fill-rule="evenodd" clip-rule="evenodd" d="M1 11.5C1.27614 11.5 1.5 11.7239 1.5 12V13.5C1.5 13.7761 1.27614 14 1 14C0.723858 14 0.5 13.7761 0.5 13.5V12C0.5 11.7239 0.723858 11.5 1 11.5Z" fill="#CECECE"/>
<path id="Vector 613 (Stroke)" fill-rule="evenodd" clip-rule="evenodd" d="M13.5 2C13.7761 2 14 2.22386 14 2.5V13.5H13V2.5C13 2.22386 13.2239 2 13.5 2Z" fill="#CECECE"/>
<path id="Ellipse 6" d="M5.5 7.5C5.5 8.05228 5.16421 8.5 4.75 8.5C4.33579 8.5 4 8.05228 4 7.5C4 6.94772 4.33579 6.5 4.75 6.5C5.16421 6.5 5.5 6.94772 5.5 7.5Z" fill="#CECECE"/>
<path id="Ellipse 9" d="M5.5 12C5.5 12.5523 5.16421 13 4.75 13C4.33579 13 4 12.5523 4 12C4 11.4477 4.33579 11 4.75 11C5.16421 11 5.5 11.4477 5.5 12Z" fill="#CECECE"/>
<path id="Ellipse 8" d="M12.5 7.5C12.5 8.05228 12.1642 8.5 11.75 8.5C11.3358 8.5 11 8.05228 11 7.5C11 6.94772 11.3358 6.5 11.75 6.5C12.1642 6.5 12.5 6.94772 12.5 7.5Z" fill="#CECECE"/>
<path id="Ellipse 10" d="M12.5 12C12.5 12.5523 12.1642 13 11.75 13C11.3358 13 11 12.5523 11 12C11 11.4477 11.3358 11 11.75 11C12.1642 11 12.5 11.4477 12.5 12Z" fill="#CECECE"/>
<path id="Ellipse 7" d="M9.5 9.5C9.5 10.3284 8.94036 11 8.25 11C7.55964 11 7 10.3284 7 9.5C7 8.67157 7.55964 8 8.25 8C8.94036 8 9.5 8.67157 9.5 9.5Z" fill="#CECECE"/>
<path id="Ellipse 11" d="M9.5 15C9.5 15.5523 8.94036 16 8.25 16C7.55964 16 7 15.5523 7 15C7 14.4477 7.55964 14 8.25 14C8.94036 14 9.5 14.4477 9.5 15Z" fill="#CECECE"/>
<path id="Vector 621 (Stroke)" fill-rule="evenodd" clip-rule="evenodd" d="M15.5 11.5C15.7761 11.5 16 11.7239 16 12V13.5C16 13.7761 15.7761 14 15.5 14C15.2239 14 15 13.7761 15 13.5V12C15 11.7239 15.2239 11.5 15.5 11.5Z" fill="#CECECE"/>
<path id="Vector 620 (Stroke)" fill-rule="evenodd" clip-rule="evenodd" d="M15.5 2.5C15.7761 2.5 16 2.72386 16 3L16 9C16 9.27614 15.7761 9.5 15.5 9.5C15.2239 9.5 15 9.27614 15 9L15 3C15 2.72386 15.2239 2.5 15.5 2.5Z" fill="#CECECE"/>
</g>
</svg>
